<svg viewBox="0 0 36 36" version="1.1" xmlns="http://www.w3.org/2000/svg" xmlns:xlink="http://www.w3.org/1999/xlink"><g id="Page-1" stroke="none" stroke-width="1" fill="none" fill-rule="evenodd"><g id="ic_volume_up_black_48dp" fill="#f0f0f0"><path d="M0,12 L0,24 L8,24 L18,34 L18,2 L8,12 L0,12 L0,12 Z M27,18 C27,14.5 25,11.4 22,10 L22,26.1 C25,24.6 27,21.5 27,18 L27,18 Z M22,0.5 L22,4.6 C27.8,6.3 32,11.7 32,18 C32,24.3 27.8,29.7 22,31.4 L22,35.5 C30,33.7 36,26.5 36,18 C36,9.5 30,2.3 22,0.5 L22,0.5 Z" id="Shape"></path></g></g></svg>