<svg viewBox="0 0 36 37" version="1.1" xmlns="http://www.w3.org/2000/svg" xmlns:xlink="http://www.w3.org/1999/xlink"><g id="Page-1" stroke="none" stroke-width="1" fill="none" fill-rule="evenodd"><g id="ic_volume_off_black_48dp" fill="#f0f0f0"><g id="Group"><path d="M27,18 C27,14.5 25,11.4 22,10 L22,14.4 L26.9,19.3 C27,18.9 27,18.4 27,18 L27,18 Z" id="Shape"></path><polygon id="Shape" points="18 2 13.8 6.2 18 10.4"></polygon><path d="M32,18 C32,19.9 31.6,21.6 30.9,23.3 L33.9,26.3 C35.2,23.8 36,21 36,18 C36,9.4 30,2.3 22,0.5 L22,4.6 C27.8,6.3 32,11.7 32,18 L32,18 Z" id="Shape"></path><path d="M2.6,0.1 L0,2.6 L9.4,12 L0,12 L0,24 L8,24 L18,34 L18,20.6 L26.5,29 C25.2,30 23.6,30.9 22,31.4 L22,35.5 C24.8,34.9 27.3,33.6 29.4,31.9 L33.5,36.1 L36,33.6 L18,15.6 L2.6,0.1 L2.6,0.1 Z" id="Shape"></path></g></g></g></svg>