<svg version="1.1" id="Layer_1" xmlns="http://www.w3.org/2000/svg" xmlns:xlink="http://www.w3.org/1999/xlink" x="0px" y="0px" viewBox="0 0 646 232" style="enable-background:new 0 0 646 232;" xml:space="preserve">
<style type="text/css">
	.st0{fill:#FFFFFF;}
</style>
<title>Artboard 1</title>
<g id="_Group_">
	<g id="_Group_2">
		<g id="_Group_3">
			<path id="_Compound_Path_" class="st0" d="M221,82.8c-0.4-0.2-0.9-0.2-1.4-0.2c-0.4,0-0.9,0-1.4,0.1l-0.7,0.1
				c-0.2,0-0.4,0.1-0.5,0.2c-0.4,0.4-0.7,0.9-1,1.3l-1,1.3c-0.6,0.8-1.2,1.7-1.8,2.6s-1.1,1.7-1.7,2.6c-1.4,2.3-2.7,4.5-3.9,6.7
				c-1.1,2.2-2.1,4.5-3,6.8c-0.1,0.2-0.2,0.5-0.2,0.7c-0.1,0.2-0.1,0.4-0.2,0.7s-0.1,0.4-0.1,0.6c0,0.2-0.1,0.4-0.2,0.6
				c-0.2,0.3-0.5,0.5-0.8,0.6c-0.3,0.1-0.7,0-1-0.1c-0.4-0.1-0.7-0.4-0.9-0.8c-0.1-0.2-0.1-0.4-0.1-0.7c0-0.2,0.1-0.4,0.1-0.6
				c0.2-1,0.4-1.9,0.8-2.8c0.4-0.9,0.7-1.8,1.1-2.7s0.9-1.8,1.3-2.8s0.9-1.8,1.4-2.7c1-1.8,2-3.5,3.1-5.3c1.1-1.7,2.2-3.4,3.4-5.1
				l-1.1,0.3c-0.4,0.1-0.8,0.3-1.4,0.4l-1.8,0.4c-0.7,0.2-1.5,0.4-2.4,0.6c-0.3,0.1-0.6,0.1-1,0.2c-0.3,0.1-0.7,0.1-1,0
				c-0.2-0.1-0.4-0.1-0.6-0.3c-0.2-0.1-0.4-0.3-0.5-0.5c-0.1-0.2-0.2-0.4-0.2-0.6c0-0.2,0.2-0.4,0.3-0.6c0.2-0.2,0.4-0.3,0.7-0.4
				c0.3,0,0.5-0.1,0.8-0.2c0.6-0.1,1.3-0.3,2-0.4c1.3-0.3,2.6-0.7,3.9-1s2.7-0.8,4-1.1c1.1-0.3,2.3-0.5,3.5-0.7
				c1.2-0.2,2.4-0.1,3.6,0.2c0.2,0.1,0.5,0.1,0.7,0.2c0.2,0.1,0.5,0.2,0.7,0.3c0.2,0.1,0.4,0.3,0.5,0.5c0.3,0.4,0.2,1-0.1,1.3
				c-0.2,0.2-0.4,0.3-0.7,0.3c-0.3,0.1-0.5,0.1-0.8,0C221.4,83.1,221.2,83,221,82.8z"></path>
			<path id="_Compound_Path_2" class="st0" d="M228.6,80.5c0,0.2,0,0.4-0.2,0.6c-0.2,0.2-0.3,0.3-0.4,0.5c-1.4,1.5-2.6,3.1-3.7,4.7
				c-1.1,1.6-2.2,3.2-3.2,4.8c0.5-0.3,0.9-0.6,1.4-0.8c0.5-0.2,1-0.4,1.5-0.6c0.5-0.1,0.9-0.1,1.4-0.1c0.5,0.1,0.9,0.3,1.2,0.6
				c0.3,0.3,0.4,0.6,0.5,1c0.1,0.4,0.1,0.7,0,1.1c-0.1,0.4-0.2,0.7-0.4,1.1c-0.2,0.3-0.3,0.7-0.5,1c-0.6,1.1-1.4,2.2-2.2,3.2
				c-0.8,0.9-1.5,1.9-2.2,3c-0.2,0.4-0.5,0.8-0.6,1.2c-0.1,0.2-0.1,0.4,0,0.5c0,0.1,0.1,0.1,0.2,0.1c0.1,0,0.2,0,0.2-0.1
				c0.4-0.2,0.7-0.5,1.1-0.8c0.3-0.3,0.6-0.6,0.9-0.9s0.8-0.9,1.3-1.5s1.2-1.5,2-2.6c0.1-0.2,0.3-0.4,0.5-0.7
				c0.2-0.2,0.4-0.4,0.6-0.5c0.4-0.2,0.9-0.2,1.3,0.1c0.4,0.2,0.6,0.7,0.5,1.1c0,0.3-0.1,0.5-0.3,0.7c-0.2,0.2-0.3,0.4-0.5,0.6
				l-1.2,1.5l-0.9,1.1l-0.7,0.8l-0.6,0.6c-0.6,0.7-1.3,1.4-2.1,2c-0.7,0.6-1.6,1-2.6,1.2c-0.4,0.1-0.9,0.1-1.3,0
				c-0.4-0.1-0.8-0.4-1.1-0.7c-0.4-0.4-0.6-1-0.6-1.6c0-0.6,0.1-1.2,0.2-1.8c0.3-1.1,0.9-2.2,1.6-3.2c0.7-1,1.4-1.9,2.1-2.9l0.5-0.6
				c0.2-0.3,0.5-0.7,0.7-1c0.2-0.2,0.3-0.5,0.4-0.8c0.1-0.2-0.1-0.2-0.4-0.1c-0.6,0.3-1.2,0.7-1.8,1.1c-0.6,0.4-1.1,0.9-1.6,1.3
				c-1.4,1.2-2.6,2.5-3.6,4c-1,1.4-1.8,2.8-2.6,4.3c-0.4,0.9-0.7,1.4-0.9,1.7c-0.1,0.3-0.3,0.5-0.5,0.6c-0.3,0.1-0.7,0.2-1,0.2
				c-0.4,0-0.7-0.2-0.9-0.4c-0.2-0.2-0.3-0.4-0.4-0.6c-0.1-0.2-0.1-0.4,0-0.6c0.1-0.2,0.1-0.4,0.2-0.6l0.3-0.6
				c0.2-0.5,0.5-1,0.8-1.4l0.8-1.4c1.8-3.4,3.7-6.5,5.6-9.5c1.9-3,4-5.8,6.2-8.6l1-1.3c0.3-0.4,0.7-0.8,1-1.2
				c0.1-0.1,0.3-0.3,0.4-0.4c0.2-0.1,0.4-0.2,0.6-0.1c0.4,0.1,0.8,0.3,1.2,0.6C228.3,79.8,228.5,80.1,228.6,80.5z"></path>
			<path id="_Compound_Path_3" class="st0" d="M228,102.5c-0.6-0.6-1-1.4-1.1-2.3c-0.1-0.9,0-1.7,0.2-2.6c0.2-0.8,0.6-1.5,1-2.2
				c0.4-0.7,0.9-1.4,1.4-2c0.5-0.6,1.1-1.2,1.7-1.8c0.6-0.6,1.2-1.1,1.8-1.5c0.5-0.4,1.1-0.7,1.7-1c0.6-0.3,1.3-0.6,2-0.7
				c0.7-0.2,1.3-0.2,2-0.1c0.6,0.1,1.2,0.4,1.5,0.9c0.4,0.4,0.5,1,0.4,1.6c-0.1,0.6-0.3,1.1-0.5,1.6c-0.5,1.1-1.2,2-2.1,2.8
				c-0.8,0.8-1.8,1.6-2.8,2.1c-0.8,0.4-1.6,0.7-2.4,0.9c-0.8,0.2-1.7,0.2-2.5,0c-0.1,0.3-0.2,0.6-0.3,0.9c-0.1,0.3-0.1,0.6,0,0.9
				c0.1,0.3,0.2,0.5,0.4,0.7c0.2,0.2,0.6,0.4,0.9,0.5c0.8,0.2,1.7,0,2.4-0.4c0.9-0.5,1.8-1,2.6-1.7c0.8-0.7,1.6-1.4,2.3-2.1
				c0.7-0.7,1.2-1.3,1.6-1.8c0.2-0.2,0.4-0.4,0.5-0.7c0.2-0.2,0.4-0.5,0.6-0.6c0.2-0.1,0.5-0.2,0.7-0.1c0.2,0,0.4,0.1,0.6,0.3
				c0.2,0.1,0.3,0.3,0.4,0.5c0.1,0.2,0.1,0.4,0,0.6c-0.1,0.3-0.2,0.6-0.4,0.8l-0.6,0.7c-1,1.1-1.7,1.9-2.2,2.4c-0.5,0.5-1,1-1.4,1.4
				c-0.7,0.6-1.5,1.2-2.3,1.7c-0.9,0.6-1.8,1-2.8,1.3c-0.9,0.3-1.9,0.4-2.9,0.3C229.5,103.7,228.6,103.2,228,102.5z M232.7,95.7
				c1-0.3,2-0.8,2.7-1.5c0.8-0.6,1.4-1.4,2-2.2c0.2-0.3,0.3-0.5,0.4-0.8c0.1-0.3,0-0.5-0.1-0.5c-0.7,0.3-1.4,0.6-2,1.1
				c-0.6,0.4-1.2,0.9-1.7,1.4c-0.9,0.8-1.7,1.7-2.4,2.7C232,95.8,232.3,95.8,232.7,95.7z"></path>
			<path id="_Compound_Path_4" class="st0" d="M268.2,93.1c-0.4,0.7-0.9,1.4-1.2,2.1c-0.1,0.1-0.2,0.4-0.3,0.7
				c-0.1,0.3-0.2,0.7-0.3,1c-0.1,0.3-0.1,0.6,0,0.8c0.1,0.2,0.3,0.3,0.6,0.2c0.2-0.1,0.3-0.2,0.5-0.3l0.4-0.3
				c0.3-0.3,0.6-0.5,0.9-0.8c0.3-0.3,0.5-0.6,0.8-0.9l1.4-1.8c0.5-0.6,0.9-1.2,1.4-1.8l0.6-0.7c0.2-0.2,0.4-0.4,0.7-0.4
				c0.3-0.1,0.6,0,0.8,0.1c0.2,0.1,0.4,0.3,0.5,0.4c0.1,0.2,0.2,0.4,0.2,0.6c0,0.2,0,0.4,0,0.6c0,0.1-0.1,0.3-0.2,0.4l-0.3,0.3
				l-1.8,2.2c-0.5,0.6-0.9,1.1-1.4,1.6c-0.4,0.5-0.9,1-1.3,1.3c-0.5,0.4-0.9,0.8-1.5,1.2c-0.5,0.3-1,0.5-1.6,0.6
				c-0.6,0.1-1.2,0-1.7-0.2c-0.5-0.2-1-0.5-1.3-1c-0.3-0.5-0.5-1-0.7-1.5c-0.2-0.6-0.2-1.3,0.1-1.9c0.2-0.6,0.5-1.2,0.8-1.8
				c0.3-0.6,0.7-1.3,1.1-1.9s0.7-1.2,1.1-1.8c-0.5-0.2-1.1-0.3-1.7-0.3c-0.6,0-1.2,0-1.8,0l-1.5,0.1l-0.8,0.1c-0.1,0-0.2,0-0.3,0.1
				l-0.1,0.1L260,91c-0.9,1.3-1.9,2.7-2.7,4s-1.7,2.7-2.5,4c-0.3,0.4-0.4,0.8-0.5,0.9c-0.1,0.1-0.1,0.3-0.2,0.4
				c-0.1,0.1-0.3,0.2-0.5,0.3c-0.2,0-0.4,0.1-0.6,0.1c-0.2,0-0.4-0.1-0.6-0.2c-0.2-0.1-0.4-0.2-0.5-0.4c-0.1-0.1-0.3-0.3-0.3-0.5
				c-0.1-0.2-0.1-0.4,0-0.6c0.1-0.2,0.2-0.5,0.3-0.7c0.1-0.2,0.3-0.4,0.4-0.6c1-1.6,1.8-2.9,2.5-3.9c0.7-1,1.3-2,2-2.9l-1.2,0.2
				c-0.4,0.1-0.8,0.2-1.2,0.3l-1,0.3c-0.3,0.1-0.7,0.1-1.1,0c-0.3-0.1-0.5-0.2-0.7-0.4c-0.2-0.2-0.4-0.4-0.4-0.7
				c-0.1-0.3,0-0.5,0.1-0.7c0.1-0.2,0.3-0.4,0.6-0.4c0.3-0.1,0.7-0.2,1-0.3c0.3-0.1,0.7-0.1,1-0.2c0.9-0.2,1.7-0.3,2.6-0.5
				s1.7-0.3,2.5-0.5c1.3-1.9,2-2.9,3.4-4.8c0.4-0.6,0.8-1.2,1.1-1.8c0.4-0.6,0.7-1.2,1-1.9c0.2-0.3,0.2-0.7,0.2-1.1
				c0-0.2-0.2-0.4-0.4-0.4c-0.3-0.1-0.5-0.1-0.8,0c-0.3,0.1-0.7,0.2-1,0.3c-0.7,0.2-1.4,0.5-2,0.8c-0.6,0.4-1.2,0.7-1.8,1.2
				c-0.5,0.4-1,0.8-1.5,1.3c-0.5,0.5-1,1-1.3,1.7c-0.1,0.3-0.3,0.6-0.4,0.9c-0.1,0.3-0.2,0.7-0.2,1c0,0.3,0,0.7,0.1,1
				c0.1,0.3,0.2,0.6,0.3,0.9c0.2,0.3,0.2,0.6,0,0.9c-0.2,0.3-0.5,0.5-0.8,0.5c-0.3,0.1-0.6,0.1-0.9,0c-0.3-0.1-0.6-0.3-0.8-0.5
				c-0.2-0.3-0.4-0.6-0.5-1c-0.1-0.3-0.2-0.7-0.2-1.1c-0.1-0.4-0.1-0.7-0.1-1.1c0-0.3,0.1-0.7,0.2-1c0.3-1.2,0.9-2.3,1.8-3.3
				c0.8-0.9,1.8-1.8,2.8-2.5c1.1-0.8,2.3-1.4,3.5-1.8c1.3-0.5,2.6-0.6,3.9-0.4c0.5,0.1,1,0.2,1.5,0.4c0.5,0.2,0.9,0.6,1.2,1
				c0.4,0.5,0.5,1.2,0.5,1.8c-0.1,0.6-0.2,1.3-0.5,1.9c-0.3,0.6-0.6,1.2-0.9,1.8l-1.1,1.7c-0.4,0.6-0.8,1.2-1.2,1.8l-1.2,1.8
				c0.9,0,1.9,0,2.9,0c0.9,0,1.8,0.2,2.6,0.7c3.7-5.3,5.6-8,9.4-13.2c0.2-0.3,0.5-0.5,0.9-0.6c0.4,0,0.7,0,1,0.2
				c0.3,0.1,0.6,0.3,0.8,0.6c0.2,0.3,0.2,0.6,0.1,0.9c-0.1,0.2-0.2,0.4-0.3,0.6c-0.1,0.2-0.3,0.3-0.4,0.5c-1.7,2.2-3.2,4.3-4.5,6.2
				s-2.6,3.7-3.8,5.4c-0.5,0.7-1,1.4-1.5,2.1C269.1,91.6,268.7,92.4,268.2,93.1z"></path>
			<path id="_Compound_Path_5" class="st0" d="M274.3,99.8c-0.5,0.1-1,0-1.5-0.2c-0.5-0.2-0.9-0.5-1.2-1c-0.3-0.5-0.5-1-0.5-1.6
				c0-0.6,0.1-1.1,0.2-1.7c0.3-1.2,0.9-2.4,1.6-3.4c0.7-1.1,1.5-2.1,2.3-3.1c0.4-0.5,0.7-1,1.1-1.5c0.4-0.5,0.8-1,1.2-1.4l0.6-0.6
				c0.2-0.2,0.5-0.3,0.7-0.4c0.5,0,0.9,0.1,1.2,0.5c0.3,0.3,0.5,0.7,0.6,1.1c0,0.2,0,0.4-0.1,0.5c-0.1,0.2-0.2,0.3-0.3,0.5
				c-0.9,1-1.7,2-2.6,3c-0.8,1-1.6,2.1-2.3,3.2c-0.4,0.6-0.7,1.3-1,2c-0.2,0.4-0.2,0.8-0.1,1.1c0.1,0.2,0.4,0.2,0.7,0
				c0.6-0.4,1.2-0.8,1.6-1.4c0.4-0.4,0.8-0.8,1.3-1.4l2.1-2.3c0.2-0.2,0.4-0.4,0.5-0.6c0.2-0.2,0.4-0.4,0.6-0.5
				c0.4-0.2,0.9-0.1,1.3,0.1c0.4,0.2,0.6,0.7,0.5,1.1c0,0.3-0.1,0.5-0.3,0.7l-0.5,0.6l-1.2,1.3l-1.1,1.2c-0.4,0.4-0.8,0.8-1.2,1.2
				c-0.7,0.7-1.4,1.4-2.2,2C275.8,99.4,275,99.7,274.3,99.8z M283.2,81.9c-0.5,0-1-0.2-1.4-0.5c-0.4-0.3-0.6-0.8-0.6-1.2
				c0-0.5,0.1-1,0.5-1.3c0.3-0.4,0.8-0.6,1.3-0.6c0.5,0,1,0.2,1.3,0.5c0.4,0.3,0.6,0.8,0.6,1.3c0,0.5-0.2,1-0.5,1.3
				C284.2,81.6,283.7,81.9,283.2,81.9L283.2,81.9z"></path>
			<path id="_Compound_Path_6" class="st0" d="M290.8,84.1c0.5,0,1,0.1,1.5,0.3c0.5,0.2,0.9,0.5,1.2,0.9c0.9-1,1.8-2,2.7-3l2.7-3
				c0.7-0.8,1.5-1.7,2.3-2.5s1.5-1.6,2.4-2.3c0.2-0.2,0.4-0.3,0.5-0.5c0.2-0.2,0.4-0.4,0.6-0.5c0.2-0.2,0.5-0.2,0.8-0.2
				c0.3,0.1,0.6,0.2,0.8,0.4c0.2,0.2,0.4,0.5,0.5,0.7c0.1,0.2,0.2,0.5,0.1,0.8c-0.1,0.2-0.2,0.4-0.4,0.6c-0.2,0.2-0.4,0.3-0.5,0.4
				l-3.2,3.3c-0.9,0.9-1.8,1.9-2.7,2.9s-1.8,2.1-2.9,3.2c-1,1.2-2.3,2.7-3.8,4.5c-0.7,0.8-1.3,1.7-2,2.6c-0.6,0.9-1.1,1.8-1.5,2.8
				c-0.2,0.4-0.2,0.7,0.1,0.8c0.3,0.1,0.6,0.1,0.8-0.1c0.4-0.2,0.7-0.4,1-0.7c0.3-0.3,0.6-0.6,0.9-0.9s0.8-0.8,1.3-1.4
				s1.2-1.3,2.1-2.2l0.5-0.6c0.2-0.2,0.4-0.4,0.6-0.5c0.4-0.2,0.9-0.1,1.2,0.1c0.4,0.2,0.6,0.7,0.5,1.1c0,0.3-0.1,0.5-0.3,0.7
				c-0.2,0.2-0.3,0.4-0.5,0.6c-0.7,0.7-1.3,1.3-1.8,1.9l-1.6,1.8l-0.9,0.9c-0.3,0.3-0.7,0.6-1,0.9c-0.4,0.3-0.7,0.5-1.1,0.7
				c-0.4,0.2-0.8,0.3-1.2,0.3c-0.9,0.2-1.8-0.1-2.6-0.6c-0.5-0.4-0.8-1-0.8-1.6c-0.5,0.4-0.9,0.8-1.5,1.2c-0.5,0.4-1,0.7-1.6,1
				c-0.5,0.2-1.1,0.4-1.7,0.5c-0.6,0.1-1.2,0-1.7-0.3c-0.8-0.4-1.3-1.1-1.5-1.9c-0.2-0.8-0.2-1.6,0.1-2.3c0.2-0.8,0.5-1.5,0.9-2.2
				c0.8-1.4,1.8-2.8,2.9-4c1.1-1.2,2.4-2.3,3.8-3.2c0.6-0.4,1.2-0.7,1.9-0.9C289.4,84.4,290,84.2,290.8,84.1z M283.8,92.6
				c-0.3,0.4-0.6,0.8-0.8,1.2c-0.3,0.4-0.5,0.8-0.7,1.2c-0.2,0.4-0.4,0.9-0.4,1.3c0,0.3,0.1,0.4,0.3,0.5c0.3,0,0.5,0,0.8-0.1
				c0.4-0.2,0.7-0.4,1-0.6c0.5-0.3,0.9-0.7,1.3-1.1c0.5-0.5,1-1,1.5-1.6s1-1.2,1.5-1.8c0.5-0.6,1-1.2,1.5-1.8l1.7-2.2
				c0.1-0.2,0-0.4-0.1-0.7c-0.1-0.1-0.2-0.2-0.4-0.3c-0.6,0-1.3,0.1-1.8,0.5c-0.7,0.4-1.4,0.9-2,1.5c-0.7,0.6-1.4,1.3-2,2
				C284.7,91.3,284.2,92,283.8,92.6L283.8,92.6z"></path>
			<path id="_Compound_Path_7" class="st0" d="M306.9,83.6c0.5,0,1,0.1,1.5,0.3c0.5,0.2,0.9,0.5,1.2,0.9c0.9-1,1.8-2,2.7-3l2.7-3
				c0.8-0.8,1.5-1.6,2.3-2.4s1.6-1.6,2.4-2.3c0.2-0.2,0.4-0.3,0.5-0.5c0.2-0.2,0.4-0.3,0.6-0.5c0.2-0.2,0.5-0.2,0.8-0.1
				c0.3,0.1,0.6,0.2,0.8,0.5c0.2,0.2,0.4,0.5,0.5,0.8c0.1,0.2,0.2,0.5,0.1,0.8c-0.1,0.2-0.2,0.4-0.4,0.6c-0.2,0.2-0.4,0.3-0.5,0.4
				l-3.3,3.2c-0.9,0.9-1.8,1.8-2.8,2.8s-1.9,2-2.9,3.2c-1.1,1.2-2.3,2.7-3.9,4.4c-0.7,0.8-1.3,1.7-2,2.6c-0.6,0.9-1.2,1.8-1.6,2.8
				c-0.2,0.4-0.2,0.7,0.1,0.8c0.3,0.1,0.6,0.1,0.8-0.1c0.4-0.2,0.7-0.4,1-0.7c0.3-0.3,0.6-0.6,0.9-0.9s0.8-0.8,1.3-1.4
				s1.2-1.3,2.1-2.2l0.5-0.6c0.2-0.2,0.4-0.4,0.6-0.5c0.4-0.2,0.9-0.1,1.2,0.2c0.4,0.2,0.6,0.7,0.5,1.1c0,0.3-0.1,0.5-0.3,0.7
				c-0.2,0.2-0.3,0.4-0.5,0.6c-0.7,0.7-1.3,1.3-1.9,1.9l-1.7,1.8l-1,0.9c-0.3,0.3-0.7,0.6-1,0.8c-0.4,0.3-0.7,0.5-1.1,0.7
				c-0.4,0.2-0.8,0.3-1.2,0.3c-0.9,0.2-1.8-0.1-2.5-0.7c-0.5-0.4-0.7-1-0.8-1.6c-0.5,0.4-1,0.8-1.5,1.2c-0.5,0.4-1,0.7-1.6,0.9
				c-0.5,0.2-1.1,0.4-1.7,0.4c-0.6,0.1-1.2-0.1-1.7-0.3c-0.7-0.4-1.3-1.1-1.5-1.9c-0.2-0.8-0.1-1.5,0.1-2.3c0.3-0.7,0.6-1.4,1-2.1
				c0.9-1.4,1.9-2.8,3-4c1.1-1.2,2.5-2.3,3.9-3.1c0.6-0.4,1.3-0.6,1.9-0.9C305.5,83.8,306.2,83.6,306.9,83.6z M299.8,91.9
				c-0.3,0.4-0.6,0.8-0.9,1.2c-0.3,0.4-0.5,0.8-0.7,1.2c-0.2,0.4-0.4,0.9-0.4,1.3c0,0.3,0.1,0.4,0.3,0.5c0.3,0,0.5,0,0.8-0.1
				c0.4-0.2,0.7-0.4,1.1-0.6c0.5-0.3,0.9-0.7,1.4-1.1c0.5-0.5,1-1,1.5-1.5c0.5-0.6,1-1.2,1.6-1.8c0.5-0.6,1.1-1.2,1.5-1.8l1.8-2.2
				c0.1-0.2,0-0.4-0.1-0.7c-0.1-0.1-0.2-0.2-0.4-0.3c-0.6,0-1.3,0.1-1.8,0.5c-0.7,0.4-1.4,0.9-2.1,1.5c-0.7,0.6-1.4,1.3-2,2
				C300.7,90.7,300.2,91.3,299.8,91.9z"></path>
			<path id="_Compound_Path_8" class="st0" d="M312.3,96.7c-0.5-0.7-0.8-1.5-0.8-2.4c0-0.9,0.2-1.7,0.5-2.5c0.3-0.8,0.7-1.5,1.2-2.1
				c0.5-0.7,1-1.3,1.6-1.9c0.6-0.6,1.2-1.1,1.8-1.6c0.6-0.5,1.3-0.9,2-1.3c0.6-0.3,1.1-0.6,1.8-0.8c0.7-0.3,1.4-0.4,2.1-0.5
				c0.7-0.1,1.3-0.1,2,0.1c0.6,0.2,1.1,0.6,1.4,1.1c0.3,0.5,0.4,1.1,0.2,1.6c-0.2,0.5-0.4,1.1-0.7,1.6c-0.7,1-1.5,1.9-2.5,2.6
				c-0.9,0.7-1.9,1.3-3,1.8c-0.8,0.3-1.6,0.5-2.5,0.6c-0.8,0.1-1.7,0-2.5-0.3c-0.2,0.3-0.3,0.6-0.4,0.9c-0.1,0.3-0.1,0.6-0.1,0.9
				c0,0.3,0.1,0.5,0.3,0.8c0.2,0.3,0.5,0.5,0.9,0.6c0.8,0.2,1.7,0.2,2.5-0.2c1-0.4,1.9-0.8,2.8-1.4c0.9-0.6,1.7-1.2,2.5-1.9
				c0.8-0.7,1.4-1.2,1.8-1.6c0.2-0.2,0.4-0.4,0.6-0.7c0.2-0.2,0.4-0.4,0.7-0.5c0.2-0.1,0.5-0.1,0.7,0c0.2,0.1,0.4,0.2,0.6,0.3
				c0.2,0.2,0.3,0.4,0.4,0.6c0.1,0.2,0.1,0.4,0,0.6c-0.1,0.3-0.3,0.5-0.5,0.7l-0.7,0.7c-1.1,1-1.9,1.7-2.5,2.2
				c-0.6,0.5-1.1,0.8-1.6,1.2c-0.8,0.6-1.6,1-2.5,1.4c-0.9,0.5-1.9,0.8-2.9,1c-1,0.2-1.9,0.2-2.9,0C313.7,98,312.9,97.5,312.3,96.7z
				 M317.7,90.4c1-0.2,2-0.6,2.9-1.2c0.8-0.6,1.6-1.2,2.2-2c0.2-0.2,0.4-0.5,0.5-0.8c0.1-0.3,0.1-0.5-0.1-0.6
				c-0.7,0.2-1.4,0.5-2.1,0.8c-0.7,0.4-1.3,0.8-1.9,1.3c-1,0.7-1.9,1.5-2.7,2.4C317,90.5,317.4,90.5,317.7,90.4L317.7,90.4z"></path>
			<path id="_Compound_Path_9" class="st0" d="M333.7,98.3c-0.5,0-1.1-0.1-1.6-0.4c-0.4-0.3-0.7-0.6-0.9-1.1c-0.2-0.5-0.2-1-0.2-1.4
				c0-0.5,0.2-1,0.4-1.5c0.5-1.1,1.2-2.1,2-2.9c0.8-0.9,1.7-1.7,2.5-2.5l0.6-0.6c0.3-0.3,0.6-0.6,0.9-0.9c0.2-0.2,0.4-0.4,0.5-0.7
				c0.1-0.2-0.1-0.2-0.5-0.1c-0.7,0.2-1.3,0.5-1.9,0.8c-0.6,0.3-1.2,0.7-1.8,1.1c-0.7,0.4-1.3,0.9-2,1.4c-0.6,0.5-1.2,1-1.8,1.6
				c-0.4,0.4-0.7,0.7-1,1.1c-0.4,0.5-0.8,0.9-1.2,1.4s-0.8,1-1.2,1.5l-1,1.4c-0.1,0.2-0.3,0.3-0.3,0.5c-0.1,0.2-0.3,0.4-0.5,0.4
				c-0.9,0.2-1.8-0.2-2.2-1.1c-0.1-0.2-0.1-0.4,0-0.6c0.1-0.2,0.2-0.4,0.3-0.6l1-1.6c0.4-0.6,0.8-1.2,1.2-1.8c0.4-0.6,0.9-1.3,1.5-2
				c0.6-0.7,1.2-1.5,2-2.4c0.8-0.9,1.7-1.9,2.7-3l0.4-0.3c0.1-0.1,0.3-0.2,0.4-0.2c0.5-0.2,1,0,1.4,0.3c0.4,0.3,0.6,0.8,0.7,1.3
				c0.7-0.5,1.5-0.9,2.2-1.2c0.8-0.4,1.7-0.6,2.5-0.7c0.5-0.1,1.1,0,1.5,0.2c0.4,0.2,0.7,0.4,0.9,0.7c0.2,0.3,0.4,0.7,0.4,1.1
				c0,0.4,0,0.7-0.2,1.1c-0.1,0.4-0.3,0.7-0.5,1c-0.2,0.3-0.4,0.6-0.6,0.9c-0.8,1-1.7,1.9-2.6,2.8c-0.9,0.8-1.8,1.7-2.5,2.7
				l-0.4,0.6c-0.1,0.2-0.3,0.4-0.4,0.6c-0.1,0.1-0.1,0.3-0.1,0.5c0,0.1,0.2,0.1,0.4,0c0.4-0.2,0.8-0.4,1.2-0.6
				c0.4-0.3,0.8-0.6,1.2-0.9c0.4-0.3,0.8-0.7,1.2-1l1.1-1l1.3-1.3c0.2-0.2,0.4-0.4,0.6-0.6c0.2-0.2,0.4-0.4,0.7-0.5
				c0.4-0.2,0.9-0.1,1.2,0.2c0.4,0.3,0.5,0.7,0.4,1.2c-0.1,0.3-0.2,0.5-0.4,0.7l-0.6,0.6l-1.3,1.3c-0.4,0.4-0.8,0.8-1.2,1.1
				s-0.8,0.7-1.3,1.1c-0.7,0.6-1.5,1.2-2.3,1.6C335.7,98,334.7,98.3,333.7,98.3z"></path>
			<path id="_Compound_Path_10" class="st0" d="M388.2,77.6L388.2,77.6c0,0,0,0.1,0,0.1c-1.5,2.5-3.1,5-4.8,7.3
				c-1.5,2.1-3.2,4.1-4.9,6c-0.9,0.9-1.7,1.9-2.6,2.8c-0.9,0.9-1.8,1.7-2.8,2.5c-0.5,0.4-1,0.8-1.4,1.1c-0.5,0.4-1,0.7-1.6,1
				c-0.5,0.3-1,0.5-1.5,0.7c-0.5,0.2-1.1,0.3-1.6,0.4c-0.5,0.1-1,0-1.5-0.1c-0.5-0.1-1-0.4-1.4-0.7c-0.9-0.7-1.3-1.8-1.1-2.9
				c-0.7,0.6-1.5,1.2-2.3,1.8c-0.8,0.6-1.6,1-2.6,1.3c-0.8,0.3-1.7,0.3-2.6,0.2c-0.8-0.1-1.6-0.6-2-1.3c-0.2-0.3-0.4-0.7-0.4-1.1
				c-0.1-0.4-0.1-0.8,0-1.2c0.1-0.4,0.2-0.8,0.3-1.1c0.2-0.4,0.3-0.7,0.5-1.1c0.4-0.8,0.9-1.5,1.4-2.2c0.5-0.7,1.1-1.4,1.6-2.1
				c1.1-1.5,2.3-2.9,3.5-4.3c1.2-1.4,2.3-2.9,3.4-4.4l0.7-1.1c0.2-0.4,0.4-0.8,0.6-1.2c0.2-0.5,0.3-0.9,0.1-1.1
				c-0.3-0.2-0.7-0.3-1.1-0.2c-0.9,0.1-1.7,0.4-2.5,0.8c-0.8,0.4-1.5,0.8-2.3,1.3c-0.7,0.5-1.4,1-2,1.6c-0.6,0.6-1.2,1.2-1.6,1.9
				c-0.5,0.7-0.9,1.5-1.2,2.3c-0.3,0.8-0.3,1.7,0,2.5l0,0c0.2,0.5,0,1-0.5,1.2c-0.4,0.2-0.9,0.2-1.4,0c-0.5-0.2-0.9-0.6-1-1.1
				c-0.1-0.5-0.2-1-0.3-1.5c0-1.1,0.2-2.2,0.7-3.2c0.4-1,1-1.9,1.8-2.7c0.7-0.8,1.5-1.6,2.4-2.3c0.9-0.7,1.9-1.3,2.9-1.8
				c1-0.5,2.1-0.9,3.2-1.2c0.5-0.1,1.1-0.2,1.6-0.2c0.6,0,1.1,0,1.6,0.2c0.5,0.1,1,0.4,1.5,0.7c0.4,0.3,0.8,0.8,1,1.3
				c0.2,0.5,0.3,1,0.1,1.5c-0.1,0.5-0.2,1-0.5,1.5c-0.2,0.5-0.5,1.1-0.9,1.6c-0.3,0.5-0.6,1-1,1.4c-0.7,0.9-1.4,1.9-2.2,2.8
				c-0.8,0.9-1.5,1.8-2.2,2.7s-1.5,1.8-2.3,2.8c-0.7,0.9-1.4,1.9-2,2.8c-0.3,0.5-0.6,0.9-0.8,1.4c-0.2,0.3-0.3,0.6-0.4,0.9
				c-0.1,0.2-0.1,0.4-0.1,0.6c0,0.1,0.2,0.2,0.4,0.2c0.3,0,0.6-0.2,0.9-0.3c0.3-0.1,0.5-0.3,0.7-0.4l0.7-0.4c1-0.6,1.9-1.3,2.8-2.1
				c0.9-0.8,1.7-1.6,2.5-2.4c0.8-0.8,1.6-1.7,2.5-2.6c0.8-0.9,1.6-1.7,2.4-2.6c0.8-0.9,1.6-1.8,2.3-2.7c0.8-0.9,1.5-1.8,2.4-2.8
				c0.2-0.2,0.4-0.4,0.6-0.7c0.2-0.2,0.4-0.5,0.6-0.7c0.2-0.1,0.3-0.2,0.5-0.3c0.2,0,0.4,0,0.6,0c0.5,0.1,0.9,0.4,1.2,0.7
				c0.3,0.4,0.4,0.9,0.1,1.3c-0.2,0.2-0.3,0.4-0.5,0.7c-0.2,0.2-0.4,0.4-0.5,0.7l-1.2,1.4c-0.7,0.9-1.5,1.8-2.3,2.7
				c-1.6,1.8-3,3.7-4.2,5.8c-0.7,0.9-1.2,1.9-1.6,3l-0.3,0.7c-0.1,0.2-0.2,0.5-0.2,0.8c0,0.2,0.1,0.4,0.2,0.5c0.1,0.1,0.4,0,0.9-0.2
				c1.1-0.4,2.1-0.9,3-1.6c0.9-0.7,1.8-1.4,2.6-2.2c1.7-1.5,3.3-3.1,4.8-4.9c1.5-1.7,2.9-3.5,4.2-5.4s2.6-3.9,3.8-5.9l0.3-0.7
				c0.1-0.2,0.3-0.4,0.5-0.5c0.2-0.1,0.3-0.2,0.5-0.2c0.2,0,0.4,0,0.6,0.1c0.4,0.1,0.7,0.3,1,0.7C388.3,76.7,388.4,77.1,388.2,77.6
				C388.2,77.5,388.2,77.5,388.2,77.6z"></path>
			<path id="_Compound_Path_11" class="st0" d="M390,96.3c-0.8,0.8-1.6,1.5-2.5,2.1c-0.7,0.5-1.5,1-2.3,1.3
				c-0.9,0.4-1.8,0.6-2.8,0.7c-0.9,0.1-1.9-0.1-2.7-0.6c-0.5-0.3-0.8-0.8-1-1.4c-0.1-0.5-0.2-1.1-0.1-1.7c0.1-0.6,0.2-1.2,0.5-1.7
				c0.2-0.5,0.5-1,0.7-1.5c0.9-1.5,2-2.8,3.2-4c1.2-1.2,2.6-2.1,4.1-2.7c0.9-0.4,1.9-0.6,2.8-0.7c1-0.1,1.9,0.2,2.7,0.7
				c0.5,0.3,0.8,0.8,1,1.4c0.2,0.5,0.2,1.1,0.1,1.7c-0.1,0.6-0.3,1.1-0.5,1.7c-0.2,0.5-0.5,1-0.8,1.4l-0.7,1.1
				c1.1,0.1,2.1-0.2,3-0.8c0.2-0.2,0.5-0.4,0.8-0.5c0.3-0.1,0.6-0.1,0.9,0c0.3,0.1,0.5,0.3,0.7,0.6c0.1,0.3,0.2,0.6,0.1,0.9
				c-0.1,0.3-0.3,0.6-0.6,0.8l-0.9,0.6c-0.9,0.5-1.8,0.9-2.9,0.9C391.9,96.7,390.9,96.6,390,96.3z M381.7,96.7
				c-0.2,0.6-0.3,0.9-0.1,1.1c0.1,0.2,0.4,0.3,0.6,0.2c0.3,0,0.6-0.1,0.9-0.3c0.4-0.2,0.7-0.3,0.9-0.5c0.7-0.4,1.3-0.8,1.9-1.3
				c0.6-0.5,1.1-1,1.6-1.5c-0.4-0.5-0.8-1.1-1-1.7c-0.2-0.6-0.3-1.3-0.3-1.9c-1,0.8-1.9,1.7-2.7,2.7
				C382.7,94.4,382.1,95.5,381.7,96.7L381.7,96.7z M389.1,89c-0.1,0.2-0.1,0.4-0.2,0.6c-0.1,0.3-0.1,0.6-0.1,0.9c0,0.3,0,0.7,0,1
				c0.1,0.3,0.2,0.7,0.3,1c0.4-0.4,0.7-0.8,0.9-1.3c0.2-0.4,0.4-0.8,0.5-1.2c0.1-0.3,0.1-0.5,0.1-0.8c0-0.2-0.1-0.3-0.3-0.4
				c-0.2-0.1-0.4-0.1-0.6,0C389.6,88.9,389.3,88.9,389.1,89z"></path>
			<path id="_Compound_Path_12" class="st0" d="M395.5,93.1c0.9-0.7,1.8-1.5,2.6-2.2c0.8-0.8,1.7-1.5,2.5-2.3
				c0.1-0.1,0.2-0.2,0.3-0.3c0.1-0.1,0.2-0.2,0.3-0.3c0-0.3,0-0.6,0.1-0.9c0.1-0.3,0.2-0.6,0.4-0.9c0.2-0.3,0.4-0.5,0.6-0.6
				c0.3-0.2,0.6-0.2,0.9-0.2c0.4,0,0.8,0.2,1.1,0.5c0.3,0.3,0.4,0.7,0.5,1.1c0,0.3-0.1,0.6-0.2,0.8c-0.1,0.3-0.3,0.5-0.4,0.7
				l0.5,0.3c0.4,0.2,0.8,0.4,1.2,0.4c0.4,0.1,0.8,0.2,1.2,0.5c0.3,0.3,0.6,0.6,0.7,1c0.1,0.4,0,0.8-0.3,1c-1,0.9-1.9,1.7-2.7,2.5
				c-0.8,0.8-1.6,1.6-2.3,2.4c-0.1,0.2-0.3,0.4-0.6,0.8c-0.2,0.4-0.5,0.7-0.7,1.1c-0.2,0.3-0.3,0.6-0.3,0.9c0,0.2,0.2,0.2,0.7,0.1
				c1-0.4,1.8-1,2.6-1.6c0.9-0.7,2-1.6,3.4-2.7l0.6-0.5c0.2-0.2,0.4-0.3,0.7-0.4c0.4-0.1,0.9,0,1.2,0.3c0.3,0.3,0.5,0.8,0.3,1.2
				c-0.1,0.3-0.2,0.5-0.4,0.7c-0.2,0.2-0.4,0.3-0.6,0.5l-1.5,1.2c-0.4,0.3-0.8,0.6-1.1,0.9l-0.8,0.6l-0.7,0.5l-1.1,0.8
				c-0.4,0.3-0.8,0.5-1.1,0.7c-0.4,0.2-0.8,0.4-1.3,0.5c-0.4,0.1-0.9,0.1-1.3,0.1c-0.5,0-1-0.2-1.5-0.5c-0.4-0.3-0.7-0.6-0.9-1
				c-0.2-0.4-0.3-0.9-0.3-1.3c0-0.5,0.1-1,0.3-1.5c0.4-1.1,1-2,1.7-2.9c0.8-0.9,1.5-1.7,2.3-2.5l0.6-0.7c0.2-0.2,0.4-0.5,0.7-0.7
				c-0.2-0.1-0.4-0.2-0.6-0.3c-0.2-0.1-0.4-0.2-0.5-0.4l-0.7,0.7l-0.9,0.8l-1.2,1.1c-0.5,0.4-1,0.9-1.7,1.4
				c-0.2,0.2-0.4,0.3-0.6,0.5c-0.2,0.2-0.4,0.3-0.6,0.4c-0.3,0.1-0.6,0.1-0.9,0c-0.3-0.1-0.5-0.3-0.6-0.5c-0.1-0.2-0.2-0.5-0.2-0.8
				C395.1,93.6,395.2,93.3,395.5,93.1z"></path>
			<path id="_Compound_Path_13" class="st0" d="M418.8,96.2c0.2-0.2,0.4-0.3,0.6-0.5c0.2-0.2,0.4-0.3,0.7-0.3c0.4-0.1,0.9,0,1.2,0.4
				c0.3,0.3,0.4,0.8,0.2,1.2c-0.1,0.2-0.2,0.5-0.4,0.6c-0.2,0.2-0.4,0.3-0.6,0.5c-1.3,1.1-2.8,2.1-4.2,3c-1,0.6-2.1,1.1-3.2,1.5
				c-0.7,0.3-1.5,0.4-2.3,0.4c-0.6,0-1.1-0.1-1.6-0.3c-1.1-0.4-1.9-1.3-2.1-2.4c-0.1-0.6-0.1-1.2,0-1.8c0.1-0.7,0.3-1.4,0.6-2
				c0.6-1.2,1.2-2.4,2-3.4c0.8-1.2,1.7-2.3,2.6-3.4c0.9-1.1,1.9-2.1,2.9-3.1c1-1,1.9-1.8,2.8-2.6s1.9-1.6,2.9-2.3
				c1-0.7,2.1-1.3,3.2-1.8c0.5-0.2,0.9-0.3,1.4-0.4c0.5-0.1,1.1-0.2,1.6-0.2c0.5,0,1,0.1,1.5,0.3c0.5,0.2,0.8,0.6,1.1,1.1
				c0.3,0.5,0.3,1.1,0.2,1.7c-0.2,0.6-0.4,1.1-0.7,1.6c-0.3,0.5-0.7,1-1.1,1.4l-1.1,1.1c-0.9,0.8-1.9,1.6-2.9,2.4
				c-1,0.7-2,1.4-3.1,2.1c-0.7,0.4-1.4,0.8-2.2,1.3c-0.8,0.4-1.5,0.8-2.2,1.2c-0.7,0.4-1.5,0.8-2.2,1.1c-0.7,0.3-1.4,0.6-2.1,0.8
				c-0.2,0.2-0.5,0.5-0.7,0.8c-0.2,0.2-0.4,0.5-0.5,0.7c-0.5,0.7-0.8,1.5-0.9,2.3c0,0.7,0.2,1.1,0.5,1.2c0.4,0.1,0.8,0.1,1.2,0
				c0.7-0.2,1.3-0.4,1.9-0.7c0.8-0.4,1.6-0.9,2.4-1.4C416.9,97.7,417.8,97,418.8,96.2z M417.6,90.1c1.3-0.7,2.5-1.5,3.7-2.4
				c1.2-0.8,2.4-1.7,3.5-2.7c0.5-0.4,0.9-0.8,1.3-1.2c0.4-0.4,0.8-0.9,1.1-1.4c0.1-0.2,0.1-0.3,0-0.4c-0.2,0-0.4,0-0.5,0
				c-0.3,0.1-0.5,0.1-0.8,0.2c-0.2,0.1-0.4,0.2-0.6,0.3c-1.2,0.6-2.4,1.4-3.4,2.2c-1.1,0.8-2.1,1.7-3,2.7c-0.7,0.7-1.3,1.3-1.9,2
				c-0.6,0.7-1.2,1.3-1.8,2.1l1.3-0.7C416.7,90.6,417.1,90.3,417.6,90.1z"></path>
			<path id="_Compound_Path_14" class="st0" d="M430.6,90.7c0.5,0.1,1,0.2,1.4,0.5c0.4,0.3,0.8,0.6,1,1.1c1-0.8,2.1-1.7,3.1-2.5
				l3.2-2.5c0.9-0.7,1.8-1.4,2.7-2s1.8-1.3,2.8-1.9c0.2-0.1,0.4-0.3,0.6-0.4c0.2-0.2,0.4-0.3,0.7-0.4c0.3-0.1,0.6-0.1,0.8,0
				c0.3,0.1,0.5,0.3,0.7,0.6c0.2,0.3,0.3,0.5,0.4,0.8c0.1,0.2,0.1,0.5,0,0.8c-0.1,0.2-0.2,0.4-0.5,0.5c-0.2,0.1-0.4,0.2-0.6,0.4
				l-3.8,2.7c-1.1,0.8-2.1,1.5-3.2,2.3c-1,0.8-2.2,1.7-3.4,2.7c-1.2,1-2.7,2.3-4.5,3.8c-0.8,0.7-1.6,1.5-2.4,2.2
				c-0.8,0.8-1.4,1.6-2,2.5c-0.3,0.4-0.3,0.7-0.1,0.8c0.3,0.2,0.6,0.2,0.9,0.1c0.4-0.1,0.8-0.3,1.1-0.6c0.3-0.2,0.7-0.5,1-0.7
				s1-0.7,1.5-1.1s1.4-1.1,2.5-1.8l0.6-0.5c0.2-0.2,0.4-0.3,0.7-0.4c0.4-0.1,0.9,0,1.2,0.3c0.3,0.3,0.5,0.8,0.3,1.2
				c-0.1,0.2-0.2,0.5-0.4,0.6c-0.2,0.1-0.4,0.3-0.6,0.5l-2.1,1.6l-1.9,1.5l-1.1,0.7c-0.4,0.2-0.8,0.5-1.2,0.7
				c-0.4,0.2-0.8,0.4-1.2,0.5c-0.4,0.1-0.8,0.1-1.3,0.1c-0.9,0-1.8-0.4-2.4-1.1c-0.4-0.5-0.6-1.1-0.5-1.7c-0.5,0.3-1.1,0.6-1.6,0.9
				c-0.5,0.3-1.1,0.5-1.7,0.7c-0.6,0.2-1.1,0.2-1.7,0.2c-0.6,0-1.2-0.2-1.6-0.6c-0.7-0.5-1.1-1.3-1.1-2.1c-0.1-0.8,0.1-1.6,0.5-2.3
				c0.4-0.7,0.8-1.4,1.3-2c1.1-1.3,2.3-2.4,3.6-3.4c1.3-1,2.8-1.9,4.3-2.5c0.6-0.2,1.3-0.4,2-0.6C429.2,90.6,429.9,90.6,430.6,90.7z
				 M422.3,97.7c-0.4,0.3-0.7,0.7-1,1c-0.3,0.3-0.6,0.7-0.9,1.1c-0.3,0.4-0.5,0.8-0.6,1.2c0,0.3,0,0.4,0.2,0.5
				c0.2,0.1,0.5,0.1,0.8,0c0.4-0.1,0.8-0.3,1.1-0.4c0.5-0.2,1-0.5,1.5-0.9c0.6-0.4,1.1-0.8,1.8-1.3s1.2-1,1.9-1.5
				c0.6-0.5,1.2-1,1.8-1.6l2.1-1.9c0.1-0.2,0.1-0.4,0-0.7c0-0.1-0.2-0.3-0.3-0.3c-0.6-0.1-1.3-0.1-1.9,0.2c-0.8,0.3-1.6,0.7-2.3,1.1
				c-0.8,0.5-1.6,1-2.3,1.6C423.4,96.7,422.8,97.2,422.3,97.7L422.3,97.7z"></path>
			<path id="_Compound_Path_15" class="st0" d="M435.8,97.8c0.5-0.4,1.1-0.8,1.6-1.2c0.5-0.4,1-0.8,1.5-1.2s0.9-0.8,1.4-1.3
				c0.6-0.5,1.1-1,1.6-1.6c0.4-0.8,0.9-1.5,1.4-2.2c0.5-0.6,1.2-1,1.9-1.3c0.7-0.3,1.5-0.4,2.3-0.3c0.4,0,0.7,0.2,1,0.4
				c0.3,0.2,0.4,0.6,0.3,0.9c0,0.2-0.1,0.4-0.2,0.6c-0.1,0.2-0.3,0.3-0.5,0.4c-0.2,0.1-0.4,0.2-0.6,0.2c-0.2,0-0.4,0.1-0.6,0.2
				c-0.5,0.2-0.9,0.5-1.3,0.9c-0.3,0.4-0.6,0.8-0.8,1.3c-0.5,1.1-0.8,2.3-1,3.5c-0.2,1.2-0.5,2.4-0.8,3.6c-0.2,0.9-0.6,1.8-1.1,2.5
				c-0.5,0.7-1.1,1.4-1.8,1.9c-0.7,0.5-1.4,0.9-2.3,1.1c-0.9,0.2-1.8,0.2-2.6,0.1c-0.8-0.1-1.5-0.4-2.1-0.9
				c-0.6-0.4-1.1-0.9-1.5-1.6c-0.7-1.3-0.7-2.9,0-4.1c0.1-0.3,0.4-0.5,0.7-0.6c0.3-0.1,0.6,0,0.9,0.1c0.3,0.1,0.5,0.3,0.7,0.6
				c0.2,0.3,0.2,0.6,0,0.9c-0.4,0.7-0.4,1.5,0,2.2c0.4,0.6,1.1,1,1.8,1.1c0.7,0.1,1.4-0.1,2-0.5c0.6-0.3,1.1-0.8,1.5-1.4
				c0.1-0.2,0.3-0.4,0.4-0.7c0.1-0.3,0.2-0.6,0.3-0.9c0.1-0.3,0.2-0.8,0.3-1.3s0.2-1.1,0.4-1.9c-0.6,0.5-1.2,1-1.8,1.5
				c-0.6,0.5-1.1,0.9-1.7,1.2c-0.3,0.2-0.6,0.2-0.9,0.1c-0.6-0.2-0.9-0.8-0.9-1.4C435.4,98.3,435.5,98,435.8,97.8z"></path>
		</g>
	</g>
	<g id="_Group_4">
		<path id="_Compound_Path_16" class="st0" d="M305.5,125.2v-4.1c-0.1-1.2,0.9-2.2,2.1-2.3c0.1,0,0.2,0,0.3,0
			c1.2-0.1,2.3,0.7,2.4,1.9c0,0.1,0,0.3,0,0.4v4.1c0.1,1.2-0.9,2.3-2.1,2.3c-0.1,0-0.2,0-0.4,0c-1.2,0.2-2.3-0.7-2.4-1.9
			C305.5,125.5,305.4,125.4,305.5,125.2z M308.6,125.2v-4.2c0-0.4-0.3-0.7-0.7-0.8c0,0-0.1,0-0.1,0c-0.4,0-0.7,0.3-0.7,0.6
			c0,0,0,0.1,0,0.1v4.2c0,0.4,0.3,0.8,0.8,0.8S308.7,125.6,308.6,125.2L308.6,125.2z"></path>
		<path id="_Compound_Path_17" class="st0" d="M313.6,119h4v1.4h-2.4v2h1.9v1.4h-1.9v3.5h-1.6V119z"></path>
		<path id="_Compound_Path_18" class="st0" d="M326.2,120.4h-1.6V119h4.8v1.4h-1.6v7h-1.7V120.4z"></path>
		<path id="_Compound_Path_19" class="st0" d="M332.5,119h1.7v3.4h1.5V119h1.7v8.4h-1.7v-3.5h-1.5v3.5h-1.7V119z"></path>
		<path id="_Compound_Path_20" class="st0" d="M340.6,119h4v1.4h-2.4v2h1.9v1.4h-1.9v2.2h2.4v1.4h-4L340.6,119z"></path>
	</g>
	<g id="_Group_5">
		<path id="_Compound_Path_21" class="st0" d="M108.2,185.7v-39.4h9.4v69h-9.4L98,170.2v45.2h-9.4v-69H98L108.2,185.7z"></path>
		<path id="_Compound_Path_22" class="st0" d="M279.2,185.7v-39.4h9.4v69h-9.4l-10.1-45.2v45.2h-9.4v-69h9.4L279.2,185.7z"></path>
		<path id="_Compound_Path_23" class="st0" d="M137.9,215.3h-9.2v-57.2c0-7.9,3.7-11.8,11-11.8h6.9c7.3,0,11,3.9,11,11.8v57.2h-9.2
			v-25.3h-10.5V215.3z M148.5,181.7v-23c0-2.7-1.3-4-4-4H142c-2.7,0-4,1.3-4,4v23H148.5z"></path>
		<path id="_Compound_Path_24" class="st0" d="M182.7,154.7v60.6h-9.2v-60.6h-8.8v-8.4h26.9v8.4H182.7z"></path>
		<path id="_Compound_Path_25" class="st0" d="M199.1,215.3v-69h9.2v69H199.1z"></path>
		<path id="_Compound_Path_26" class="st0" d="M229.8,215.3c-7.4,0-11.1-3.9-11.1-11.7v-45.4c0-7.9,3.7-11.8,11-11.8h8.8
			c7.3,0,11,3.9,11,11.8v45.4c0,7.8-3.7,11.7-11.1,11.7L229.8,215.3z M232,207h4.7c2.4,0,3.6-1.3,3.6-4v-44.3c0-2.7-1.4-4-4.1-4
			h-4.3c-2.7,0-4,1.3-4,4v44.2C227.9,205.6,229.3,207,232,207z"></path>
		<path id="_Compound_Path_27" class="st0" d="M307.9,215.3h-9.2v-57.2c0-7.9,3.7-11.8,11-11.8h6.9c7.3,0,11,3.9,11,11.8v57.2h-9.2
			v-25.3h-10.5V215.3z M318.5,181.7v-23c0-2.7-1.3-4-4-4H312c-2.7,0-4,1.3-4,4v23H318.5z"></path>
		<path id="_Compound_Path_28" class="st0" d="M360,215.3h-21.9v-69h9.2V207H360V215.3z"></path>
		<path id="_Compound_Path_29" class="st0" d="M381.8,146.4h16.8c7.4,0,11.1,3.9,11.1,11.8v20.5c0,7.8-3.7,11.7-11,11.7H391v25h-9.2
			V146.4z M391,182h5.9c2.4,0,3.6-1.3,3.6-4v-19.3c0-2.7-1.4-4-4.1-4H391V182z"></path>
		<path id="_Compound_Path_30" class="st0" d="M428,215.3h-9.2v-57.2c0-7.9,3.7-11.8,11-11.8h6.9c7.3,0,11,3.9,11,11.8v57.2h-9.2
			v-25.3H428V215.3z M438.6,181.7v-23c0-2.7-1.3-4-4-4h-2.5c-2.7,0-4,1.3-4,4v23H438.6z"></path>
		<path id="_Compound_Path_31" class="st0" d="M458.2,146.4h18.1c7,0,10.6,3.9,10.6,11.8v17c0,6-1.8,9.8-5.5,11.4l6.4,28.7H479
			l-6-27.9h-5.6v27.9h-9.2L458.2,146.4z M467.4,179.6h6c2.8,0,4.1-1.7,4.1-5v-14.9c0-3.3-1.4-5-4.1-5h-6V179.6z"></path>
		<path id="_Compound_Path_32" class="st0" d="M505.9,215.3h-9.2v-69h9.2V215.3z M527.2,215.3h-9.2l-11.5-33.7V181l9.6-34.6h8.5
			l-9.7,34.3L527.2,215.3z"></path>
		<path id="_Compound_Path_33" class="st0" d="M552.3,164.9v-6.1c0-2.8-1.3-4.1-4-4.1h-1.4c-2.6,0-3.9,1.4-3.9,4.1v11.4
			c-0.1,0.9,0.2,1.9,0.8,2.6c0.8,0.6,1.6,1.2,2.5,1.7l8.7,4.7c1.4,0.8,2.8,1.6,4.1,2.6c0.8,0.6,1.4,1.3,1.9,2.2
			c0.6,1.6,0.8,3.3,0.7,4.9v14.7c0,7.8-3.7,11.6-11.1,11.6h-5.7c-7.3,0-11-4.2-11-12.7v-3.5h9.2v3.8c0,2.7,1.4,4,4.1,4h1.6
			c2.4,0,3.7-1.3,3.7-4v-11.7c0.1-0.9-0.2-1.9-0.8-2.6c-0.8-0.6-1.6-1.2-2.5-1.7l-8.7-4.9c-1.5-0.7-2.9-1.6-4.2-2.6
			c-0.9-0.7-1.5-1.7-1.9-2.7c-0.4-1.4-0.6-2.9-0.6-4.4v-14.1c0-7.9,3.7-11.8,11-11.8h5.8c7.3,0,11,3.9,11,11.8v6.7L552.3,164.9z"></path>
	</g>
</g>
</svg>