<svg viewBox="0 0 429 47" version="1.1" xmlns="http://www.w3.org/2000/svg" xmlns:xlink="http://www.w3.org/1999/xlink">
    <g id="icons" stroke="none" stroke-width="1" fill="none" fill-rule="evenodd"><g id="google_arts_culture_logo" transform="translate(0.000000, -1.000000)" fill="#ffffff"><path d="M129.666,29.281 C130.878,31.638 132.764,32.839 135.414,32.839 C138.063,32.839 139.905,31.549 141.252,29.592 L145.294,32.26 C143.991,34.173 140.848,37.463 135.414,37.463 C128.678,37.463 123.648,32.305 123.648,25.723 C123.648,18.741 128.722,13.982 134.83,13.982 C140.983,13.982 143.991,18.83 144.98,21.453 L145.518,22.788 L129.666,29.281 L129.666,29.281 Z M135.01,18.518 C132.36,18.518 128.678,20.831 128.813,25.368 L139.411,21.009 C138.827,19.541 137.075,18.518 135.01,18.518 L135.01,18.518 Z M115.924,2.242 L121.133,2.242 L121.133,36.752 L115.924,36.752 L115.924,2.242 L115.924,2.242 Z M101.06,48.004 C95.311,48.004 91.853,44.179 90.551,41.065 L95.087,39.199 C95.895,41.11 97.871,43.378 101.06,43.378 C104.967,43.378 107.392,40.977 107.392,36.486 L107.392,34.796 L107.212,34.796 C106.044,36.219 103.799,37.463 100.97,37.463 C95.042,37.463 89.608,32.35 89.608,25.767 C89.608,19.141 95.042,13.982 100.97,13.982 C103.799,13.982 106.044,15.227 107.212,16.606 L107.392,16.606 L107.392,14.694 L112.331,14.694 L112.331,35.774 C112.331,44.446 107.167,48.004 101.06,48.004 L101.06,48.004 Z M101.419,18.607 C97.826,18.607 94.817,21.631 94.817,25.767 C94.817,29.859 97.826,32.839 101.419,32.839 C104.967,32.839 107.751,29.859 107.751,25.767 C107.751,21.631 104.967,18.607 101.419,18.607 L101.419,18.607 Z M75.526,37.463 C68.969,37.463 63.626,32.482 63.626,25.723 C63.626,18.919 68.969,13.982 75.526,13.982 C82.083,13.982 87.427,18.919 87.427,25.723 C87.427,32.482 82.083,37.463 75.526,37.463 L75.526,37.463 Z M75.526,18.607 C71.934,18.607 68.835,21.499 68.835,25.723 C68.835,29.904 71.934,32.839 75.526,32.839 C79.119,32.839 82.217,29.904 82.217,25.723 C82.217,21.499 79.119,18.607 75.526,18.607 L75.526,18.607 Z M49.565,37.463 C43.009,37.463 37.665,32.482 37.665,25.723 C37.665,18.919 43.009,13.982 49.565,13.982 C56.121,13.982 61.466,18.919 61.466,25.723 C61.466,32.482 56.121,37.463 49.565,37.463 L49.565,37.463 Z M49.565,18.607 C45.973,18.607 42.874,21.499 42.874,25.723 C42.874,29.904 45.973,32.839 49.565,32.839 C53.158,32.839 56.256,29.904 56.256,25.723 C56.256,21.499 53.158,18.607 49.565,18.607 L49.565,18.607 Z M18.684,37.463 C8.534,37.463 0.001,29.281 0.001,19.231 C0.001,9.179 8.534,0.996 18.684,0.996 C24.297,0.996 28.293,3.176 31.303,6.022 L27.755,9.535 C25.599,7.534 22.679,5.977 18.684,5.977 C11.273,5.977 5.48,11.892 5.48,19.231 C5.48,26.567 11.273,32.482 18.684,32.482 C23.488,32.482 26.228,30.571 27.98,28.836 C29.416,27.413 30.359,25.368 30.718,22.566 L18.684,22.566 L18.684,17.585 L35.613,17.585 C35.793,18.474 35.883,19.541 35.883,20.697 C35.883,24.434 34.85,29.059 31.526,32.35 C28.293,35.685 24.162,37.463 18.684,37.463 L18.684,37.463 Z M175.172,9.846 L174.993,9.846 L169.737,24.248 L180.428,24.248 L175.172,9.846 L175.172,9.846 Z M181.865,28.082 L168.345,28.082 L165.201,36.731 L160.619,36.731 L172.746,4.808 L177.419,4.808 L189.546,36.731 L184.965,36.731 L181.865,28.082 L181.865,28.082 Z M198.192,20.078 C196.92,21.223 196.284,22.791 196.284,24.782 L196.284,36.731 L192.151,36.731 L192.151,14.885 L196.103,14.885 L196.103,18.451 L196.284,18.451 C196.762,17.174 197.654,16.171 198.956,15.442 C200.26,14.713 201.688,14.349 203.246,14.349 C203.695,14.349 204.189,14.379 204.728,14.439 L204.728,18.451 C204.159,18.393 203.605,18.362 203.066,18.362 C201.09,18.362 199.465,18.935 198.192,20.078 L198.192,20.078 Z M218.743,33.343 C219.491,33.343 220.12,33.225 220.63,32.987 L222.066,36.509 C221.169,36.895 220.06,37.088 218.743,37.088 C216.437,37.088 214.678,36.479 213.465,35.261 C212.253,34.042 211.645,32.318 211.645,30.089 L211.645,18.63 L207.783,18.63 L207.783,14.885 L211.645,14.885 L211.645,8.197 L215.778,8.197 L215.778,14.885 L221.169,14.885 L221.169,18.63 L215.778,18.63 L215.778,29.776 C215.778,32.155 216.767,33.343 218.743,33.343 L218.743,33.343 Z M235.901,24.203 C237.968,24.679 239.495,25.496 240.483,26.655 C241.471,27.815 241.965,29.123 241.965,30.579 C241.965,32.54 241.157,34.176 239.54,35.484 C237.923,36.791 235.841,37.445 233.296,37.445 C230.84,37.445 228.812,36.85 227.21,35.662 C225.607,34.473 224.431,32.987 223.684,31.203 L227.367,29.688 C228.535,32.423 230.526,33.789 233.341,33.789 C234.629,33.789 235.684,33.507 236.508,32.942 C237.331,32.378 237.743,31.635 237.743,30.713 C237.743,29.287 236.739,28.321 234.733,27.815 L230.286,26.744 C228.879,26.388 227.547,25.712 226.289,24.716 C225.032,23.72 224.402,22.375 224.402,20.681 C224.402,18.749 225.263,17.181 226.986,15.977 C228.707,14.772 230.751,14.171 233.116,14.171 C235.062,14.171 236.8,14.61 238.327,15.487 C239.855,16.363 240.947,17.62 241.606,19.254 L238.013,20.726 C237.204,18.794 235.527,17.827 232.982,17.827 C231.754,17.827 230.721,18.08 229.883,18.585 C229.044,19.091 228.625,19.774 228.625,20.636 C228.625,21.885 229.598,22.732 231.544,23.178 L235.901,24.203 L235.901,24.203 Z M261.458,19.745 C260.229,20.428 259.25,21.349 258.517,22.509 C257.782,23.668 257.416,24.887 257.416,26.164 C257.416,28.335 258.187,30.133 259.729,31.56 C261.27,32.987 263.15,33.7 265.366,33.7 C267.462,33.7 269.184,32.987 270.532,31.56 L261.458,19.745 L261.458,19.745 Z M278.123,35.127 L275.023,37.445 L272.822,34.547 C270.726,36.479 268.241,37.445 265.366,37.445 C262.103,37.445 259.332,36.361 257.056,34.191 C254.78,32.021 253.643,29.346 253.643,26.164 C253.643,24.322 254.137,22.554 255.125,20.859 C256.113,19.165 257.476,17.798 259.213,16.757 C257.655,14.706 256.877,12.937 256.877,11.451 C256.877,9.4 257.64,7.661 259.168,6.234 C260.694,4.808 262.521,4.095 264.647,4.095 C266.444,4.095 267.964,4.607 269.207,5.633 C270.449,6.658 271.324,7.945 271.834,9.49 L268.286,11.362 C267.447,9.133 266.234,8.018 264.647,8.018 C263.63,8.018 262.776,8.323 262.087,8.932 C261.398,9.542 261.054,10.381 261.054,11.451 C261.054,12.461 261.398,13.413 262.087,14.305 L272.733,28.126 L275.608,23.356 L278.842,25.318 L275.113,31.248 L278.123,35.127 L278.123,35.127 Z M306.241,33.521 C310.104,33.521 313.399,31.976 316.124,28.884 L318.998,31.739 C317.531,33.492 315.688,34.882 313.474,35.907 C311.257,36.933 308.847,37.445 306.241,37.445 C301.51,37.445 297.542,35.855 294.338,32.675 C291.134,29.494 289.532,25.525 289.532,20.77 C289.532,16.015 291.134,12.046 294.338,8.865 C297.542,5.685 301.51,4.095 306.241,4.095 C311.093,4.095 315.03,5.833 318.054,9.312 L315.18,12.076 C312.994,9.371 310.015,8.018 306.241,8.018 C302.738,8.018 299.78,9.193 297.37,11.54 C294.96,13.889 293.754,16.966 293.754,20.77 C293.754,24.575 294.96,27.651 297.37,29.999 C299.78,32.348 302.738,33.521 306.241,33.521 L306.241,33.521 Z M337.369,33.7 L337.189,33.7 C336.561,34.74 335.601,35.625 334.314,36.353 C333.026,37.081 331.665,37.445 330.228,37.445 C327.472,37.445 325.384,36.614 323.961,34.948 C322.538,33.284 321.828,31.055 321.828,28.26 L321.828,14.885 L325.96,14.885 L325.96,27.592 C325.96,31.664 327.771,33.7 331.396,33.7 C333.101,33.7 334.494,33.016 335.572,31.649 C336.65,30.282 337.189,28.707 337.189,26.923 L337.189,14.885 L341.322,14.885 L341.322,36.731 L337.369,36.731 L337.369,33.7 L337.369,33.7 Z M345.903,4.808 L350.036,4.808 L350.036,36.731 L345.903,36.731 L345.903,4.808 L345.903,4.808 Z M364.364,33.343 C365.113,33.343 365.741,33.225 366.251,32.987 L367.687,36.509 C366.79,36.895 365.68,37.088 364.364,37.088 C362.059,37.088 360.299,36.479 359.086,35.261 C357.873,34.042 357.266,32.318 357.266,30.089 L357.266,18.63 L353.404,18.63 L353.404,14.885 L357.266,14.885 L357.266,8.197 L361.4,8.197 L361.4,14.885 L366.79,14.885 L366.79,18.63 L361.4,18.63 L361.4,29.776 C361.4,32.155 362.388,33.343 364.364,33.343 L364.364,33.343 Z M385.654,33.7 L385.475,33.7 C384.846,34.74 383.887,35.625 382.6,36.353 C381.313,37.081 379.95,37.445 378.513,37.445 C375.757,37.445 373.668,36.614 372.246,34.948 C370.824,33.284 370.113,31.055 370.113,28.26 L370.113,14.885 L374.246,14.885 L374.246,27.592 C374.246,31.664 376.056,33.7 379.681,33.7 C381.388,33.7 382.78,33.016 383.858,31.649 C384.936,30.282 385.475,28.707 385.475,26.923 L385.475,14.885 L389.607,14.885 L389.607,36.731 L385.654,36.731 L385.654,33.7 L385.654,33.7 Z M404.025,18.407 C402.528,18.407 401.202,18.994 400.051,20.168 C398.897,21.343 398.321,22.881 398.321,24.782 L398.321,36.731 L394.188,36.731 L394.188,14.885 L398.141,14.885 L398.141,18.451 L398.321,18.451 C398.74,17.263 399.6,16.282 400.903,15.509 C402.206,14.736 403.471,14.349 404.699,14.349 C405.927,14.349 406.96,14.528 407.799,14.885 L406.227,18.718 C405.687,18.512 404.954,18.407 404.025,18.407 L404.025,18.407 Z M422.868,19.611 C421.804,18.481 420.224,17.917 418.13,17.917 C416.603,17.917 415.277,18.393 414.154,19.343 C413.031,20.295 412.261,21.572 411.841,23.178 L424.598,23.178 C424.508,21.929 423.93,20.741 422.868,19.611 L422.868,19.611 Z M428.955,26.566 L411.571,26.566 C411.69,28.766 412.432,30.505 413.795,31.782 C415.157,33.061 416.752,33.7 418.579,33.7 C421.543,33.7 423.55,32.452 424.598,29.955 L428.282,31.471 C427.563,33.165 426.379,34.585 424.732,35.728 C423.085,36.872 421.063,37.445 418.669,37.445 C415.345,37.445 412.642,36.347 410.56,34.146 C408.479,31.946 407.439,29.167 407.439,25.808 C407.439,22.629 408.45,19.894 410.471,17.604 C412.492,15.315 415.075,14.171 418.22,14.171 C421.483,14.171 424.096,15.227 426.058,17.338 C428.019,19.448 429,22.272 429,25.808 L428.955,26.566 L428.955,26.566 Z" id="Google"></path></g></g>
</svg>